<?xml version="1.0" standalone="no"?>
<!DOCTYPE svg PUBLIC "-//W3C//DTD SVG 20010904//EN"
 "http://www.w3.org/TR/2001/REC-SVG-20010904/DTD/svg10.dtd">
<svg version="1.0" xmlns="http://www.w3.org/2000/svg"
 width="96.000000pt" height="96.000000pt" viewBox="0 0 96.000000 96.000000"
 preserveAspectRatio="xMidYMid meet">
<metadata>
Created by potrace 1.11, written by Peter Selinger 2001-2013
</metadata>
<g transform="translate(0.000000,96.000000) scale(0.100000,-0.100000)"
fill="#000000" stroke="none">
<path d="M404 895 c-19 -36 -19 -36 11 -107 6 -15 2 -18 -24 -19 -17 -1 -34
-2 -38 -3 -5 -1 -24 -6 -43 -10 -49 -12 -86 -32 -95 -53 -28 -68 -51 -347 -34
-425 27 -123 111 -205 218 -212 80 -5 193 40 244 98 10 12 30 46 45 76 25 51
27 65 28 185 1 142 -11 213 -48 270 -30 46 -69 63 -154 67 l-71 3 -18 44 c-17
42 -18 46 -1 74 9 17 13 34 8 39 -5 5 -17 -7 -28 -27z"/>
</g>
</svg>
